<?xml version="1.0" encoding="UTF-8" standalone="no"?>
<!-- Created with Inkscape (http://www.inkscape.org/) -->

<svg
   xmlns:dc="http://purl.org/dc/elements/1.1/"
   xmlns:cc="http://creativecommons.org/ns#"
   xmlns:rdf="http://www.w3.org/1999/02/22-rdf-syntax-ns#"
   xmlns:svg="http://www.w3.org/2000/svg"
   xmlns="http://www.w3.org/2000/svg"
   xmlns:sodipodi="http://sodipodi.sourceforge.net/DTD/sodipodi-0.dtd"
   xmlns:inkscape="http://www.inkscape.org/namespaces/inkscape"
   width="199.93932"
   height="123.61814"
   version="1.1"
   id="svg3460"
   inkscape:version="0.91 r13725"
   sodipodi:docname="Mastercard-logo.svg">
  <defs
     id="defs3488" />
  <sodipodi:namedview
     pagecolor="#ffffff"
     bordercolor="#666666"
     borderopacity="1"
     objecttolerance="10"
     gridtolerance="10"
     guidetolerance="10"
     inkscape:pageopacity="0"
     inkscape:pageshadow="2"
     inkscape:window-width="1278"
     inkscape:window-height="770"
     id="namedview3486"
     showgrid="false"
     fit-margin-top="0"
     fit-margin-left="0"
     fit-margin-right="0"
     fit-margin-bottom="0"
     inkscape:zoom="3.7087029"
     inkscape:cx="110.70866"
     inkscape:cy="61.120376"
     inkscape:window-x="0"
     inkscape:window-y="0"
     inkscape:window-maximized="0"
     inkscape:current-layer="svg3460" />
  <metadata
     id="metadata3462">
    <rdf:RDF>
      <cc:Work
         rdf:about="">
        <dc:format>image/svg+xml</dc:format>
        <dc:type
           rdf:resource="http://purl.org/dc/dcmitype/StillImage" />
        <dc:title></dc:title>
      </cc:Work>
    </rdf:RDF>
  </metadata>
  <g
     transform="translate(1565.6233,-1106.7483)"
     id="g3464">
    <g
       transform="matrix(3.1437,0,0,3.1437,-4835.7,-1027.6)"
       id="g3466">
      <g
         transform="matrix(1.25,0,0,-1.25,1102.5,727.74)"
         id="g3468" />
      <g
         transform="matrix(1.25,0,0,-1.25,1103.2,710.77)"
         id="g3472" />
      <path
         d="m 1080.6,714.05 -17.202,0 0,-30.915 17.202,0 z"
         id="path3476"
         inkscape:connector-curvature="0"
         style="fill:#ff5f00" />
      <g
         transform="matrix(1.25,0,0,-1.25,1064.5,698.59)"
         id="g3478">
        <path
           d="m 0,0 c 0,5.017 2.349,9.486 6.007,12.366 -2.675,2.106 -6.051,3.363 -9.72,3.363 -8.686,0 -15.727,-7.042 -15.727,-15.729 0,-8.687 7.041,-15.729 15.727,-15.729 3.669,0 7.045,1.257 9.72,3.363 C 2.349,-9.486 0,-5.017 0,0"
           id="path3480"
           inkscape:connector-curvature="0"
           style="fill:#eb001b" />
      </g>
      <g
         transform="matrix(1.25,0,0,-1.25,1103.8,698.59)"
         id="g3482">
        <path
           d="m 0,0 c 0,-8.687 -7.041,-15.729 -15.727,-15.729 -3.669,0 -7.045,1.257 -9.721,3.363 3.659,2.88 6.008,7.349 6.008,12.366 0,5.017 -2.349,9.486 -6.008,12.366 2.676,2.106 6.052,3.363 9.721,3.363 C -7.041,15.729 0,8.687 0,0"
           id="path3484"
           inkscape:connector-curvature="0"
           style="fill:#f79e1b" />
      </g>
    </g>
  </g>
</svg>
