<svg viewBox="0 0 25 25" version="1.1" xmlns="http://www.w3.org/2000/svg" xmlns:xlink="http://www.w3.org/1999/xlink" id="el_NM0niJApe"><style>@-webkit-keyframes el_qK8TtoSQAr_6rB8gHkYR_Animation{0%{-webkit-transform: rotate(0deg);transform: rotate(0deg);}100%{-webkit-transform: rotate(1080deg);transform: rotate(1080deg);}}@keyframes el_qK8TtoSQAr_6rB8gHkYR_Animation{0%{-webkit-transform: rotate(0deg);transform: rotate(0deg);}100%{-webkit-transform: rotate(1080deg);transform: rotate(1080deg);}}#el_NM0niJApe *{  animation-iteration-count: infinite; -webkit-animation-duration: 3s;animation-duration: 3s;-webkit-animation-timing-function: cubic-bezier(0, 0, 1, 1);animation-timing-function: cubic-bezier(0, 0, 1, 1);}#el_olVVU0izcN{stroke: none;stroke-width: 1;fill: none;}#el_c_1FASuoMH{-webkit-transform: translate(-4px, -4px);transform: translate(-4px, -4px);fill: #FFFFFF;}#el_qK8TtoSQAr_6rB8gHkYR{-webkit-animation-name: el_qK8TtoSQAr_6rB8gHkYR_Animation;animation-name: el_qK8TtoSQAr_6rB8gHkYR_Animation;-webkit-transform-origin: 50% 50%;transform-origin: 50% 50%;transform-box: fill-box;-webkit-transform: rotate(0deg);transform: rotate(0deg);}</style>
    <!-- Generator: Sketch 52.1 (67048) - http://www.bohemiancoding.com/sketch -->
    <title>Shape</title>
    <desc>Created with Sketch.</desc>
    <g id="el_olVVU0izcN" fill-rule="evenodd">
        <g id="el_c_1FASuoMH" fill-rule="nonzero">
            <g id="el_qK8TtoSQAr_6rB8gHkYR" data-animator-group="true" data-animator-type="1"><path d="M16.4137931,4 C17.0206897,4 17.4896552,4.68965517 17.4896552,5.54482759 L17.4896552,8.63448276 C17.4896552,9.48965517 16.9931034,10.1793103 16.4137931,10.1793103 C15.8068966,10.1793103 15.337931,9.48965517 15.337931,8.63448276 L15.337931,5.54482759 C15.337931,4.68965517 15.8068966,4 16.4137931,4 Z M25.1862069,7.64137931 C25.6,8.05517241 25.462069,8.91034483 24.8551724,9.51724138 L22.6482759,11.7241379 C22.0413793,12.3310345 21.2137931,12.4689655 20.7724138,12.0551724 C20.3586207,11.6413793 20.4965517,10.7862069 21.1034483,10.1793103 L23.3103448,7.97241379 C23.9448276,7.36551724 24.7724138,7.2 25.1862069,7.64137931 Z M28.8275862,16.4137931 C28.8275862,17.0206897 28.137931,17.4896552 27.2827586,17.4896552 L24.1655172,17.4896552 C23.3103448,17.4896552 22.6206897,16.9931034 22.6206897,16.4137931 C22.6206897,15.8068966 23.3103448,15.337931 24.1655172,15.337931 L27.2551724,15.337931 C28.137931,15.337931 28.8275862,15.8068966 28.8275862,16.4137931 Z M25.1862069,25.1862069 C24.7724138,25.6 23.9172414,25.462069 23.3103448,24.8551724 L21.1034483,22.6482759 C20.4965517,22.0413793 20.3586207,21.2137931 20.7724138,20.7724138 C21.1862069,20.3586207 22.0413793,20.4965517 22.6482759,21.1034483 L24.8551724,23.3103448 C25.462069,23.9448276 25.6275862,24.7724138 25.1862069,25.1862069 Z M16.4137931,28.8275862 C15.8068966,28.8275862 15.337931,28.137931 15.337931,27.2827586 L15.337931,24.1655172 C15.337931,23.3103448 15.8344828,22.6206897 16.4137931,22.6206897 C17.0206897,22.6206897 17.4896552,23.3103448 17.4896552,24.1655172 L17.4896552,27.2551724 C17.4896552,28.137931 17.0206897,28.8275862 16.4137931,28.8275862 Z M7.64137931,25.1862069 C7.22758621,24.7724138 7.36551724,23.9172414 7.97241379,23.3103448 L10.1793103,21.1034483 C10.7862069,20.4965517 11.6137931,20.3586207 12.0551724,20.7724138 C12.4689655,21.1862069 12.3310345,22.0413793 11.7241379,22.6482759 L9.51724138,24.8551724 C8.88275862,25.462069 8.05517241,25.6275862 7.64137931,25.1862069 Z M4,16.4137931 C4,15.8068966 4.68965517,15.337931 5.54482759,15.337931 L8.63448276,15.337931 C9.48965517,15.337931 10.1793103,15.8344828 10.1793103,16.4137931 C10.1793103,17.0206897 9.48965517,17.4896552 8.63448276,17.4896552 L5.54482759,17.4896552 C4.68965517,17.4896552 4,17.0206897 4,16.4137931 Z M7.64137931,7.64137931 C8.05517241,7.22758621 8.91034483,7.36551724 9.51724138,7.97241379 L11.7241379,10.1793103 C12.3310345,10.7862069 12.4689655,11.6137931 12.0551724,12.0551724 C11.6413793,12.4689655 10.7862069,12.3310345 10.1793103,11.7241379 L7.97241379,9.51724138 C7.36551724,8.88275862 7.2,8.05517241 7.64137931,7.64137931 Z" id="el_qK8TtoSQAr"/></g>
        </g>
    </g>
<script>(function(){var a=document.querySelector('#el_NM0niJApe'),b=a.querySelectorAll('style'),c=function(d){b.forEach(function(f){var g=f.textContent;g&amp;&amp;(f.textContent=g.replace(/transform-box:[^;\r\n]*/gi,'transform-box: '+d))})};c('initial'),window.requestAnimationFrame(function(){return c('fill-box')})})();</script></svg>
