<?xml version="1.0" encoding="UTF-8"?>
<svg width="600px" height="600px" viewBox="0 0 600 600" version="1.1" xmlns="http://www.w3.org/2000/svg" xmlns:xlink="http://www.w3.org/1999/xlink">
    <!-- Generator: Sketch 51.2 (57519) - http://www.bohemiancoding.com/sketch -->
    <title>Artboard</title>
    <desc>Created with Sketch.</desc>
    <defs>
        <linearGradient x1="100%" y1="0%" x2="19.1242813%" y2="87.9185374%" id="linearGradient-1">
            <stop stop-color="#00A0DD" offset="0%"></stop>
            <stop stop-color="#8250E3" offset="100%"></stop>
        </linearGradient>
    </defs>
    <g id="Artboard" stroke="none" stroke-width="1" fill="none" fill-rule="evenodd">
        <g id="Group-9" transform="translate(21.000000, 11.000000)">
            <path d="M235.46097,109.075015 L113.131926,277.195719 C108.721836,283.256646 108.721836,291.463759 113.131926,297.524686 L235.46097,465.64539 C239.87106,471.706317 247.688131,474.242454 254.823806,471.927386 L452.756357,407.710992 C459.892032,405.395924 464.723248,398.75623 464.723248,391.264512 L464.723248,183.455893 C464.723248,175.964176 459.892032,169.324482 452.756357,167.009414 L254.823806,102.793019 C247.688131,100.477951 239.87106,103.014088 235.46097,109.075015 Z M242.266275,19.1715541 L242.26696,19.1715199 C242.854793,21.9103005 242.949191,24.6617132 242.602554,27.3230661 L242.624499,27.3159464 L242.580411,27.4885882 C242.303512,29.5051673 241.773299,31.4686646 241.012666,33.3342133 C240.804391,34.0525225 240.623551,34.6392261 240.470145,35.0943241 C237.941893,42.5947008 236.916832,47.0795585 238.132506,50.8154462 L244.305261,69.7849369 C246.442811,76.3538384 254.146142,81.3358426 267.415255,84.7309493 L266.909994,84.8948738 C393.300062,125.885551 456.561032,146.409671 456.692903,146.467233 L459.178465,147.273638 C460.136327,147.584403 461.075314,147.930589 461.994164,148.31046 C472.408578,151.054868 482.227674,148.71992 487.112667,145.552293 L501.769272,135.964123 C505.068606,133.824702 507.098606,129.695182 509.860966,122.277584 C510.028577,121.827509 510.257813,121.257917 510.548674,120.56881 C511.13333,118.641037 511.958789,116.781936 513.014566,115.040762 C514.928153,111.932587 517.426947,109.315565 520.54567,107.29326 C531.776102,100.010995 546.792414,103.198056 554.085541,114.411761 C561.378669,125.625466 558.186854,140.619412 546.956422,147.901676 C543.837699,149.923982 540.427013,151.138905 536.970845,151.598758 C534.543364,151.961768 532.781381,152.071759 531.723101,151.987473 C522.535369,151.255723 516.406643,151.215896 512.788318,153.562163 L495.834701,164.555573 C491.062826,167.649849 486.476931,175.195831 485.505625,186.186952 C485.501928,323.406602 485.496406,392.141227 485.489057,392.390826 C486.337063,403.340586 491.993859,411.964448 496.718277,415.51925 L510.754504,425.992093 C513.896339,428.356109 518.476908,428.848465 526.402351,428.9034 C526.88324,428.906734 527.497683,428.927012 528.245678,428.964237 C530.259858,428.853478 532.291771,428.992151 534.291478,429.387262 C537.871049,430.119709 541.188551,431.569236 544.158397,433.803842 C554.852729,441.850597 556.989285,457.030336 548.930528,467.70874 C540.87177,478.387143 525.669388,480.520517 514.975055,472.473762 C512.005209,470.239156 509.695329,467.454462 508.080484,464.368842 C506.908611,462.21531 506.202465,460.599673 505.919833,459.577869 C503.466089,450.706811 501.407423,444.942649 497.961823,442.350071 L481.81751,430.202577 C477.082256,426.639623 467.866681,424.919541 456.569685,428.293149 L453.18543,429.391122 C328.667865,469.795968 266.272937,490.039113 266.000646,490.120557 L263.782037,490.840353 C252.656661,494.741365 246.21365,501.541651 244.480126,507.203308 L238.569869,526.506092 C237.308473,530.625788 239.036121,536.497345 242.273055,545.114308 C242.645899,546.106844 243.025679,547.828366 243.345316,550.258393 C243.855266,553.70248 243.625778,557.311037 242.538549,560.861903 C238.623472,573.648472 225.06865,580.844964 212.263007,576.935718 C199.457365,573.026471 192.250138,559.491839 196.165216,546.70527 C197.252444,543.154403 199.083079,540.034637 201.547849,537.341189 C202.933058,535.84789 204.495279,534.543152 206.189984,533.450616 C206.773213,532.981495 207.25837,532.604467 207.645455,532.319531 C214.024934,527.623568 217.440861,524.536863 218.591053,520.780359 L223.781634,504.069653 C225.556661,498.27245 224.98326,487.579463 218.647674,477.84277 L99.4316705,314.000417 C91.7860507,304.210719 82.7985196,300.224838 76.6775085,300.545149 L56.4903411,301.601538 C52.1818958,301.826997 47.2470973,305.456227 40.2448194,311.440595 C39.4382687,312.129899 37.9480473,313.075039 35.7704841,314.206071 C32.7036867,315.862501 29.2292051,316.881372 25.5156508,317.075702 C12.1432477,317.775476 0.734647934,307.518426 0.0338299843,294.165941 C-0.666987965,280.813455 9.60536142,269.421848 22.9777645,268.722074 C26.6913188,268.527745 30.2534268,269.178393 33.6312158,270.569856 C35.5103206,271.35885 37.2725132,272.378424 38.8803165,273.594885 C39.5212794,273.981675 40.0420321,274.307943 40.4425743,274.57369 C47.043829,278.953396 51.1170255,281.102821 55.0456383,280.897238 L72.5472724,280.052126 C78.5382724,279.738618 88.2438743,275.638462 95.0974503,266.780148 C95.4858282,266.177652 95.892888,265.58345 96.3186298,264.998339 L98.0339985,262.640853 L214.568111,101.876452 C223.353617,91.3260381 226.739084,82.9553409 224.724512,76.7643601 L218.477773,57.5675105 C217.144563,53.4704238 212.356547,49.650188 204.755146,44.4454495 C204.557346,44.310014 204.337884,44.1443047 204.096999,43.9485164 C203.270762,43.2769878 202.19015,42.249953 200.855163,40.8674119 L200.921874,40.8457684 C198.525754,38.3165974 196.640869,35.2292079 195.491743,31.6978287 C191.353772,18.9814329 198.323337,5.32326553 211.058702,1.19145807 C223.794066,-2.94034939 237.472607,4.01883447 241.610578,16.7352303 C241.873679,17.5437656 242.091875,18.3561083 242.266275,19.1715541 Z" id="Combined-Shape" fill="url(#linearGradient-1)" fill-rule="nonzero"></path>
            <path d="M331.5913,211.012916 L331.593126,211 C331.691188,211.002122 334.447573,211.004514 334.54549,211.007175 C361.303792,211.734337 382.656198,232.546411 382.713065,258.724866 C382.713065,258.770048 382.713483,272.898248 382.714317,274.444954 C382.71887,282.882518 375.879131,289.726205 367.437331,289.730756 L367.429087,289.730758 L360.90537,289.730843 C360.639872,289.730843 360.374908,289.737778 360.110479,289.751649 L360.110472,289.751514 C353.290992,290.109238 347.472574,284.873724 347.11467,278.057667 C347.103343,277.841947 347.097677,277.625967 347.097677,277.40995 C347.097677,277.06369 347.084271,263.386498 347.057903,263.043643 C346.564368,256.62642 341.529651,250.779052 334.85729,250.779052 C334.655367,250.779052 326.168867,250.779052 325.966944,250.788443 L325.971893,250.753443 L296.327,250.744008 C296.327,250.744008 344.239984,312.36962 352.957618,323.515911 C361.675252,334.662201 361.675252,336.570412 377.149538,336.570412 C384.798937,336.570412 391,342.768364 391,350.413925 L391,354.439159 C391,363.585459 383.581737,371 374.430845,371 L364.152618,371 C342.405867,371 330.630086,359.854849 318.671643,342.58442 C310.50515,330.79034 273.813299,279.521878 273.813299,279.521878 L273.813299,329.681212 C273.813299,338.827512 266.395036,346.242054 257.244144,346.242054 L249.569155,346.242054 C240.418263,346.242054 233,338.827512 233,329.681212 L233,227.573757 C233,218.427457 240.418263,211.012916 249.569155,211.012916 L331.5913,211.012916 Z" id="Combined-Shape" fill="#FFFFFF"></path>
        </g>
    </g>
</svg>