<?xml version="1.0" encoding="UTF-8"?>
<svg width="190px" height="70px" viewBox="0 0 190 70" version="1.1" xmlns="http://www.w3.org/2000/svg" xmlns:xlink="http://www.w3.org/1999/xlink">
    <!-- Generator: Sketch 52.1 (67048) - http://www.bohemiancoding.com/sketch -->
    <title>Group 10</title>
    <desc>Created with Sketch.</desc>
    <defs>
        <linearGradient x1="100%" y1="0%" x2="19.1242813%" y2="87.9185374%" id="linearGradient-1">
            <stop stop-color="#00A0DD" offset="0%"></stop>
            <stop stop-color="#8250E3" offset="100%"></stop>
        </linearGradient>
    </defs>
    <g id="Homepage" stroke="none" stroke-width="1" fill="none" fill-rule="evenodd">
        <g id="Homepage-hover-user" transform="translate(-230.000000, -31.000000)">
            <g id="Group-10" transform="translate(230.000000, 31.000000)">
                <g id="Group-9">
                    <g id="Group-13">
                        <path d="M28.8282411,13.6256614 L14.1857653,33.7793004 C13.6578887,34.5058602 13.6578887,35.4896961 14.1857653,36.2162558 L28.8282411,56.3698949 C29.3561177,57.0964546 30.2918013,57.4004767 31.1459235,57.1229555 L54.8379471,49.4249504 C55.6920693,49.1474293 56.2703535,48.3514893 56.2703535,47.4534121 L56.2703535,22.5421442 C56.2703535,21.644067 55.6920693,20.848127 54.8379471,20.5706059 L31.1459235,12.8726008 C30.2918013,12.5950796 29.3561177,12.8991017 28.8282411,13.6256614 Z M29.6428189,2.84839326 L29.6429009,2.84838916 C29.713263,3.17670325 29.7245622,3.50653162 29.6830706,3.82556398 L29.6856974,3.8247105 L29.6804201,3.84540611 C29.6472761,4.08714557 29.5838109,4.32252179 29.4927651,4.54615632 C29.4678351,4.63226436 29.446189,4.70259605 29.4278267,4.75715138 C29.1252014,5.65626661 29.0025041,6.19389345 29.1480173,6.64173675 L29.8868804,8.91572359 C30.1427396,9.70317729 31.0648088,10.3004001 32.6530879,10.7073919 L32.5926095,10.7270425 C47.7211796,15.6408414 55.2933569,18.1011909 55.3091416,18.1080913 L55.6066571,18.2047599 C55.7213107,18.2420131 55.8337051,18.2835125 55.9436891,18.3290499 C57.1902679,18.6580386 58.3655889,18.3781343 58.9503101,17.9984119 L60.7046685,16.8490203 C61.0995903,16.5925551 61.3425762,16.0975247 61.6732237,15.2083326 C61.6932863,15.1543794 61.7207253,15.086099 61.7555406,15.0034916 C61.8255225,14.7723979 61.9243278,14.5495363 62.0507016,14.3408113 C62.2797532,13.9682157 62.5788524,13.6544976 62.9521556,13.4120716 C64.2964098,12.5391028 66.0938242,12.921155 66.9667931,14.2654092 C67.8397619,15.6096633 67.4577097,17.4070777 66.1134555,18.2800466 C65.7401523,18.5224725 65.3319019,18.6681126 64.9182073,18.723238 C64.627644,18.7667541 64.4167392,18.7799394 64.2900657,18.7698356 C63.1903175,18.6821163 62.4567246,18.6773419 62.0236203,18.9586032 L59.9943154,20.2764492 C59.4231341,20.6473787 58.8742141,21.5519609 58.7579512,22.8695326 C58.7575088,39.3188766 58.7568477,47.5585091 58.7559681,47.5884301 C58.8574723,48.9010436 59.5345763,49.9348378 60.1000773,50.3609733 L61.7801779,51.6164158 C62.1562477,51.8998047 62.7045301,51.9588264 63.6531855,51.9654118 C63.7107467,51.9658114 63.7842939,51.9682423 63.8738271,51.9727046 C64.1149193,51.9594273 64.3581341,51.9760508 64.5974939,52.0234152 C65.0259595,52.1112181 65.423056,52.2849815 65.7785391,52.5528572 C67.0586235,53.51747 67.3143638,55.3371566 66.349751,56.617241 C65.3851382,57.8973254 63.5654516,58.1530657 62.2853672,57.1884529 C61.9298842,56.9205772 61.6533973,56.5867592 61.4601045,56.2168674 C61.3198343,55.9587105 61.2353105,55.7650345 61.2014801,55.6425447 C60.9077732,54.5791176 60.6613561,53.8881329 60.2489266,53.577345 L58.3164932,52.121152 C57.7496954,51.6940392 56.6466144,51.4878427 55.2943927,51.8922573 L54.889306,52.0238779 C39.9848698,56.8674496 32.5163554,59.2941171 32.4837628,59.3038802 L32.218201,59.3901665 C30.8865217,59.8578042 30.1153097,60.6729954 29.9078112,61.3516923 L29.2003685,63.665633 C29.0493826,64.1594857 29.2561776,64.8633445 29.6436305,65.8963116 C29.6882589,66.0152929 29.7337176,66.221662 29.7719773,66.512964 C29.8330171,66.9258274 29.8055479,67.3584068 29.6754094,67.7840705 C29.2067846,69.3168733 27.5843068,70.1795601 26.051504,69.7109352 C24.5187011,69.2423103 23.6560144,67.6198326 24.1246393,66.0870297 C24.2547777,65.661366 24.4739,65.2873809 24.7689267,64.9645012 C24.9347327,64.7854905 25.1217266,64.6290837 25.3245785,64.4981147 C25.3943895,64.4418784 25.4524615,64.3966818 25.4987947,64.3625248 C26.2624022,63.7995915 26.6712799,63.4295696 26.808955,62.979255 L27.4302543,60.9760422 C27.6427205,60.2810966 27.5740859,58.999264 26.8157323,57.8320681 L12.5458795,38.1913008 C11.6307183,37.0177508 10.5549336,36.5399393 9.82226414,36.5783369 L7.40591148,36.7049725 C6.89020152,36.7319997 6.29951868,37.1670574 5.4613638,37.8844395 C5.36482172,37.9670705 5.18644601,38.0803701 4.92579723,38.2159537 C4.55870937,38.4145199 4.14282274,38.5366581 3.69831973,38.5599535 C2.09767704,38.6438397 0.732096629,37.4142655 0.6482105,35.8136229 C0.564324372,34.2129802 1.7938985,32.8473998 3.39454118,32.7635136 C3.8390442,32.7402182 4.26541948,32.8182154 4.66973225,32.9850184 C4.89465632,33.0795999 5.1055863,33.2018224 5.29803626,33.3476468 C5.3747579,33.3940137 5.43709067,33.4331254 5.48503456,33.464982 C6.27518798,33.9900037 6.76273925,34.2476682 7.23298423,34.2230237 L9.32788537,34.1217151 C10.0449928,34.084133 11.2067287,33.5926226 12.0270844,32.5307233 C12.0735722,32.4584985 12.1222963,32.3872679 12.1732565,32.3171272 L12.3785817,32.0345212 L26.327419,12.7627263 C27.3790218,11.4979848 27.7842536,10.4945391 27.5431144,9.75238899 L26.7953957,7.45114728 C26.6358138,6.96000487 26.0627005,6.50205025 25.1528321,5.87812697 C25.1291559,5.8618915 25.1028868,5.84202694 25.0740536,5.81855661 C24.975155,5.73805645 24.8458085,5.61493962 24.686014,5.44920611 L24.6939992,5.44661157 C24.4071896,5.14342465 24.1815737,4.77332071 24.0440262,4.34999307 C23.5487217,2.82560229 24.3829608,1.18831569 25.9073516,0.693011104 C27.4317424,0.197706515 29.069029,1.0319457 29.5643336,2.55633648 C29.5958261,2.65326047 29.6219437,2.75064087 29.6428189,2.84839326 Z" id="Combined-Shape" fill="url(#linearGradient-1)" fill-rule="nonzero"></path>
                        <path d="M40.4773113,25.6101641 L40.4775317,25.6086043 C40.4893684,25.6088606 40.8220811,25.6091494 40.8339004,25.6094708 C44.0637938,25.6972878 46.641162,28.2106956 46.6480262,31.3721842 C46.6480262,31.3776407 46.6480766,33.0838584 46.6481773,33.2706492 C46.6487269,34.2896269 45.8231278,35.1161171 44.8041501,35.1166667 L44.8031549,35.116667 L44.0157018,35.1166772 C43.9836545,35.1166772 43.9516717,35.1175148 43.9197535,35.1191899 L43.9197526,35.1191736 C43.0965991,35.1623748 42.3942798,34.5300985 42.3510786,33.7069449 C42.3497113,33.6808931 42.3490273,33.6548099 42.3490273,33.6287223 C42.3490273,33.5869056 42.3474092,31.9351546 42.3442264,31.8937491 C42.2846537,31.1187615 41.676932,30.4125936 40.8715366,30.4125936 C40.8471633,30.4125936 39.8227899,30.4125936 39.7984165,30.4137277 L39.7990139,30.4095009 L36.2206911,30.4083614 C36.2206911,30.4083614 42.004086,37.8506902 43.0563587,39.1967922 C44.1086313,40.5428942 44.1086313,40.7733427 45.9764739,40.7733427 C46.8998039,40.7733427 47.6483107,41.5218496 47.6483107,42.4451796 L47.6483107,42.9312943 C47.6483107,44.0358638 46.7528802,44.9312943 45.6483107,44.9312943 L44.4076648,44.9312943 C41.7826967,44.9312943 40.3612867,43.5853299 38.9178283,41.4996352 C37.9320819,40.0753018 33.5031473,33.8837731 33.5031473,33.8837731 L33.5031473,39.941356 C33.5031473,41.0459255 32.6077168,41.941356 31.5031473,41.941356 L30.5767284,41.941356 C29.4721589,41.941356 28.5767284,41.0459255 28.5767284,39.941356 L28.5767284,27.6101641 C28.5767284,26.5055946 29.4721589,25.6101641 30.5767284,25.6101641 L40.4773113,25.6101641 Z" id="Combined-Shape" fill="#FFFFFF"></path>
                        <circle id="Oval-6" fill="#FFFFFF" cx="188" cy="40" r="2"></circle>
                        <path d="M87.728,39.844 C87.9186676,39.9613339 88.0689995,40.1153324 88.179,40.306 C88.2890006,40.4966676 88.344,40.6946656 88.344,40.9 C88.344,41.1640013 88.2560009,41.4059989 88.08,41.626 C87.8599989,41.8900013 87.5226689,42.022 87.068,42.022 C86.7159982,42.022 86.3933348,41.9413341 86.1,41.78 C85.0439947,41.1786637 84.516,39.9540092 84.516,38.106 C84.516,37.5779974 84.3436684,37.1600015 83.999,36.852 C83.6543316,36.5439985 83.1593366,36.39 82.514,36.39 L78.4,36.39 L78.4,40.658 C78.4,41.054002 78.2936677,41.3766654 78.081,41.626 C77.8683323,41.8753346 77.5860018,42 77.234,42 C76.8086645,42 76.4383349,41.871668 76.123,41.615 C75.8076651,41.3583321 75.65,41.0393352 75.65,40.658 L75.65,27.942 C75.65,27.5606648 75.7783321,27.241668 76.035,26.985 C76.291668,26.7283321 76.6106648,26.6 76.992,26.6 L83.328,26.6 C84.0906705,26.6 84.80933,26.8053313 85.484,27.216 C86.15867,27.6266687 86.6976647,28.1913297 87.101,28.91 C87.5043354,29.6286703 87.706,30.4353289 87.706,31.33 C87.706,32.063337 87.508002,32.7783299 87.112,33.475 C86.715998,34.1716702 86.2026698,34.7253313 85.572,35.136 C86.4960046,35.7813366 87.0019996,36.6466612 87.09,37.732 C87.1340002,37.9666678 87.156,38.1939989 87.156,38.414 C87.214667,38.8686689 87.273333,39.194999 87.332,39.393 C87.390667,39.591001 87.5226656,39.7413328 87.728,39.844 Z M83.218,34.124 C83.4820013,34.124 83.7386654,33.9993346 83.988,33.75 C84.2373346,33.5006654 84.4426659,33.1670021 84.604,32.749 C84.7653341,32.3309979 84.846,31.8800024 84.846,31.396 C84.846,30.9853313 84.7653341,30.6076684 84.604,30.263 C84.4426659,29.9183316 84.2373346,29.6433344 83.988,29.438 C83.7386654,29.2326656 83.4820013,29.13 83.218,29.13 L78.4,29.13 L78.4,34.124 L83.218,34.124 Z M100.714,35.84 C100.699333,36.1920018 100.560001,36.4779989 100.296,36.698 C100.031999,36.9180011 99.7240018,37.028 99.372,37.028 L92.112,37.028 C92.2880009,37.8933377 92.6913302,38.5716642 93.322,39.063 C93.9526698,39.5543358 94.663996,39.8 95.456,39.8 C96.0573363,39.8 96.526665,39.7450006 96.864,39.635 C97.201335,39.5249995 97.468999,39.4076673 97.667,39.283 C97.865001,39.1583327 98.0006663,39.0740002 98.074,39.03 C98.3380013,38.8979993 98.5873322,38.832 98.822,38.832 C99.1300015,38.832 99.3939989,38.9419989 99.614,39.162 C99.8340011,39.3820011 99.944,39.6386652 99.944,39.932 C99.944,40.328002 99.7386687,40.6873317 99.328,41.01 C98.9173313,41.347335 98.3673368,41.6333322 97.678,41.868 C96.9886632,42.1026678 96.2920035,42.22 95.588,42.22 C94.3559938,42.22 93.2816712,41.9633359 92.365,41.45 C91.4483287,40.9366641 90.7406692,40.2290045 90.242,39.327 C89.7433308,38.4249955 89.494,37.409339 89.494,36.28 C89.494,35.0186604 89.7579974,33.9113381 90.286,32.958 C90.8140026,32.0046619 91.5106623,31.2750025 92.376,30.769 C93.2413377,30.2629975 94.1653284,30.01 95.148,30.01 C96.1160048,30.01 97.0289957,30.2739974 97.887,30.802 C98.7450043,31.3300026 99.4306641,32.0413289 99.944,32.936 C100.457336,33.8306711 100.714,34.7986615 100.714,35.84 Z M95.148,32.43 C93.4466582,32.43 92.4420015,33.2293253 92.134,34.828 L97.898,34.828 L97.898,34.674 C97.839333,34.0579969 97.5386694,33.5300022 96.996,33.09 C96.4533306,32.6499978 95.8373368,32.43 95.148,32.43 Z M101.952,40.174 C101.819999,39.9979991 101.754,39.7780013 101.754,39.514 C101.754,39.1326648 101.944665,38.8100013 102.326,38.546 C102.531334,38.4139993 102.743999,38.348 102.964,38.348 C103.272002,38.348 103.565332,38.4873319 103.844,38.766 C104.284002,39.2206689 104.742331,39.5579989 105.219,39.778 C105.695669,39.9980011 106.27133,40.108 106.946,40.108 C108.090006,40.0639998 108.662,39.6313374 108.662,38.81 C108.662,38.3846645 108.467669,38.0620011 108.079,37.842 C107.690331,37.6219989 107.085337,37.4020011 106.264,37.182 C105.413329,36.9473322 104.720336,36.7126678 104.185,36.478 C103.649664,36.2433322 103.187669,35.8876691 102.799,35.411 C102.410331,34.934331 102.216,34.2926707 102.216,33.486 C102.216,32.7819965 102.417665,32.1696693 102.821,31.649 C103.224335,31.1283307 103.75233,30.7250014 104.405,30.439 C105.05767,30.1529986 105.750663,30.01 106.484,30.01 C107.232004,30.01 107.979996,30.1493319 108.728,30.428 C109.476004,30.7066681 110.062665,31.1173306 110.488,31.66 C110.678668,31.8946678 110.774,32.1586652 110.774,32.452 C110.774,32.789335 110.634668,33.0679989 110.356,33.288 C110.150666,33.4493341 109.916001,33.53 109.652,33.53 C109.329332,33.53 109.065334,33.4273344 108.86,33.222 C108.595999,32.8993317 108.255002,32.6426676 107.837,32.452 C107.418998,32.2613324 106.946003,32.166 106.418,32.166 C105.303328,32.166 104.746,32.5693293 104.746,33.376 C104.746,33.6986683 104.848666,33.958999 105.054,34.157 C105.259334,34.355001 105.519665,34.5089995 105.835,34.619 C106.150335,34.7290006 106.593997,34.8646659 107.166,35.026 C107.958004,35.2460011 108.617997,35.4733322 109.146,35.708 C109.674003,35.9426678 110.121331,36.3019976 110.488,36.786 C110.854668,37.2700024 111.038,37.907996 111.038,38.7 C111.038,39.4186703 110.825335,40.045664 110.4,40.581 C109.974665,41.116336 109.428337,41.5233319 108.761,41.802 C108.093663,42.0806681 107.408004,42.22 106.704,42.22 C105.735995,42.22 104.834004,42.0586683 103.998,41.736 C103.161996,41.4133317 102.480003,40.8926703 101.952,40.174 Z M115.444,40.658 C115.444,41.0393352 115.319335,41.3583321 115.07,41.615 C114.820665,41.871668 114.505335,42 114.124,42 C113.742665,42 113.427335,41.871668 113.178,41.615 C112.928665,41.3583321 112.804,41.0393352 112.804,40.658 L112.804,31.572 C112.804,31.1906648 112.928665,30.871668 113.178,30.615 C113.427335,30.3583321 113.742665,30.23 114.124,30.23 C114.505335,30.23 114.820665,30.3583321 115.07,30.615 C115.319335,30.871668 115.444,31.1906648 115.444,31.572 L115.444,40.658 Z M114.102,28.8 C113.603331,28.8 113.251334,28.7193341 113.046,28.558 C112.840666,28.3966659 112.738,28.1106687 112.738,27.7 L112.738,27.282 C112.738,26.8713313 112.847999,26.5853341 113.068,26.424 C113.288001,26.2626659 113.639998,26.182 114.124,26.182 C114.637336,26.182 114.996666,26.2626659 115.202,26.424 C115.407334,26.5853341 115.51,26.8713313 115.51,27.282 L115.51,27.7 C115.51,28.1253355 115.403668,28.4149992 115.191,28.569 C114.978332,28.7230008 114.615336,28.8 114.102,28.8 Z M117.188,40.174 C117.055999,39.9979991 116.99,39.7780013 116.99,39.514 C116.99,39.1326648 117.180665,38.8100013 117.562,38.546 C117.767334,38.4139993 117.979999,38.348 118.2,38.348 C118.508002,38.348 118.801332,38.4873319 119.08,38.766 C119.520002,39.2206689 119.978331,39.5579989 120.455,39.778 C120.931669,39.9980011 121.50733,40.108 122.182,40.108 C123.326006,40.0639998 123.898,39.6313374 123.898,38.81 C123.898,38.3846645 123.703669,38.0620011 123.315,37.842 C122.926331,37.6219989 122.321337,37.4020011 121.5,37.182 C120.649329,36.9473322 119.956336,36.7126678 119.421,36.478 C118.885664,36.2433322 118.423669,35.8876691 118.035,35.411 C117.646331,34.934331 117.452,34.2926707 117.452,33.486 C117.452,32.7819965 117.653665,32.1696693 118.057,31.649 C118.460335,31.1283307 118.98833,30.7250014 119.641,30.439 C120.29367,30.1529986 120.986663,30.01 121.72,30.01 C122.468004,30.01 123.215996,30.1493319 123.964,30.428 C124.712004,30.7066681 125.298665,31.1173306 125.724,31.66 C125.914668,31.8946678 126.01,32.1586652 126.01,32.452 C126.01,32.789335 125.870668,33.0679989 125.592,33.288 C125.386666,33.4493341 125.152001,33.53 124.888,33.53 C124.565332,33.53 124.301334,33.4273344 124.096,33.222 C123.831999,32.8993317 123.491002,32.6426676 123.073,32.452 C122.654998,32.2613324 122.182003,32.166 121.654,32.166 C120.539328,32.166 119.982,32.5693293 119.982,33.376 C119.982,33.6986683 120.084666,33.958999 120.29,34.157 C120.495334,34.355001 120.755665,34.5089995 121.071,34.619 C121.386335,34.7290006 121.829997,34.8646659 122.402,35.026 C123.194004,35.2460011 123.853997,35.4733322 124.382,35.708 C124.910003,35.9426678 125.357331,36.3019976 125.724,36.786 C126.090668,37.2700024 126.274,37.907996 126.274,38.7 C126.274,39.4186703 126.061335,40.045664 125.636,40.581 C125.210665,41.116336 124.664337,41.5233319 123.997,41.802 C123.329663,42.0806681 122.644004,42.22 121.94,42.22 C120.971995,42.22 120.070004,42.0586683 119.234,41.736 C118.397996,41.4133317 117.716003,40.8926703 117.188,40.174 Z M133.87,39.514 C134.075334,39.514 134.262332,39.612999 134.431,39.811 C134.599668,40.009001 134.684,40.2693317 134.684,40.592 C134.684,40.988002 134.467669,41.3216653 134.035,41.593 C133.602331,41.8643347 133.114669,42 132.572,42 C131.662662,42 130.896336,41.8056686 130.273,41.417 C129.649664,41.0283314 129.338,40.2033396 129.338,38.942 L129.338,32.87 L128.326,32.87 C127.973998,32.87 127.680668,32.7526678 127.446,32.518 C127.211332,32.2833322 127.094,31.9900018 127.094,31.638 C127.094,31.300665 127.211332,31.0183345 127.446,30.791 C127.680668,30.5636655 127.973998,30.45 128.326,30.45 L129.338,30.45 L129.338,29.042 C129.338,28.6606648 129.466332,28.341668 129.723,28.085 C129.979668,27.8283321 130.298665,27.7 130.68,27.7 C131.046668,27.7 131.354665,27.8283321 131.604,28.085 C131.853335,28.341668 131.978,28.6606648 131.978,29.042 L131.978,30.45 L133.54,30.45 C133.892002,30.45 134.185332,30.5673322 134.42,30.802 C134.654668,31.0366678 134.772,31.3299982 134.772,31.682 C134.772,32.019335 134.654668,32.3016655 134.42,32.529 C134.185332,32.7563345 133.892002,32.87 133.54,32.87 L131.978,32.87 L131.978,38.832 C131.978,39.1400015 132.058666,39.363666 132.22,39.503 C132.381334,39.642334 132.601332,39.712 132.88,39.712 C132.997334,39.712 133.158666,39.682667 133.364,39.624 C133.540001,39.5506663 133.708666,39.514 133.87,39.514 Z M146.438,30.01 C146.819335,30.01 147.134665,30.1346654 147.384,30.384 C147.633335,30.6333346 147.758,30.955998 147.758,31.352 L147.758,40.658 C147.758,41.0393352 147.633335,41.3583321 147.384,41.615 C147.134665,41.871668 146.819335,42 146.438,42 C146.056665,42 145.745001,41.8753346 145.503,41.626 C145.260999,41.3766654 145.132667,41.0613352 145.118,40.68 C144.751331,41.1053355 144.256336,41.4683318 143.633,41.769 C143.009664,42.0696682 142.353337,42.22 141.664,42.22 C140.651995,42.22 139.735337,41.9596693 138.914,41.439 C138.092663,40.9183307 137.443669,40.1960046 136.967,39.272 C136.490331,38.3479954 136.252,37.2993392 136.252,36.126 C136.252,34.9526608 136.486664,33.900338 136.956,32.969 C137.425336,32.037662 138.066996,31.3116693 138.881,30.791 C139.695004,30.2703307 140.593328,30.01 141.576,30.01 C142.280004,30.01 142.939997,30.1383321 143.556,30.395 C144.172003,30.651668 144.692665,30.977998 145.118,31.374 L145.118,31.352 C145.118,30.9706648 145.242665,30.651668 145.492,30.395 C145.741335,30.1383321 146.056665,30.01 146.438,30.01 Z M141.994,39.8 C142.947338,39.8 143.724664,39.4516702 144.326,38.755 C144.927336,38.0583299 145.228,37.1820053 145.228,36.126 C145.228,35.0699947 144.927336,34.1900035 144.326,33.486 C143.724664,32.7819965 142.947338,32.43 141.994,32.43 C141.055329,32.43 140.285336,32.7819965 139.684,33.486 C139.082664,34.1900035 138.782,35.0699947 138.782,36.126 C138.782,37.1820053 139.078997,38.0583299 139.673,38.755 C140.267003,39.4516702 141.040662,39.8 141.994,39.8 Z M156.63,30.01 C158.126007,30.01 159.159997,30.4536622 159.732,31.341 C160.304003,32.2283378 160.59,33.4566588 160.59,35.026 L160.59,40.658 C160.59,41.0393352 160.465335,41.3583321 160.216,41.615 C159.966665,41.871668 159.651335,42 159.27,42 C158.888665,42 158.573335,41.871668 158.324,41.615 C158.074665,41.3583321 157.95,41.0393352 157.95,40.658 L157.95,35.026 C157.95,34.2193293 157.781335,33.5850023 157.444,33.123 C157.106665,32.6609977 156.527337,32.43 155.706,32.43 C154.855329,32.43 154.188002,32.6756642 153.704,33.167 C153.219998,33.6583358 152.978,34.2779963 152.978,35.026 L152.978,40.658 C152.978,41.0393352 152.853335,41.3583321 152.604,41.615 C152.354665,41.871668 152.039335,42 151.658,42 C151.276665,42 150.961335,41.871668 150.712,41.615 C150.462665,41.3583321 150.338,41.0393352 150.338,40.658 L150.338,31.572 C150.338,31.1906648 150.462665,30.871668 150.712,30.615 C150.961335,30.3583321 151.276665,30.23 151.658,30.23 C152.039335,30.23 152.354665,30.3583321 152.604,30.615 C152.853335,30.871668 152.978,31.1906648 152.978,31.572 L152.978,31.946 C153.374002,31.4179974 153.890997,30.9633352 154.529,30.582 C155.167003,30.2006648 155.86733,30.01 156.63,30.01 Z M168.296,30.01 C169.542673,30.01 170.54733,30.2043314 171.31,30.593 C172.07267,30.9816686 172.454,31.4986634 172.454,32.144 C172.454,32.4666683 172.358668,32.7489988 172.168,32.991 C171.977332,33.2330012 171.728002,33.354 171.42,33.354 C171.185332,33.354 170.994667,33.3210003 170.848,33.255 C170.701333,33.1889997 170.558334,33.1010006 170.419,32.991 C170.279666,32.8809995 170.144001,32.7893337 170.012,32.716 C169.865333,32.6426663 169.649001,32.576667 169.363,32.518 C169.076999,32.459333 168.846001,32.43 168.67,32.43 C167.569994,32.43 166.708336,32.7709966 166.085,33.453 C165.461664,34.1350034 165.15,35.0259945 165.15,36.126 C165.15,37.1820053 165.46533,38.0583299 166.096,38.755 C166.72667,39.4516702 167.533328,39.8 168.516,39.8 C169.23467,39.8 169.769998,39.7120009 170.122,39.536 C170.21,39.4919998 170.330999,39.4150006 170.485,39.305 C170.639001,39.1949995 170.781999,39.110667 170.914,39.052 C171.046001,38.993333 171.207332,38.964 171.398,38.964 C171.764668,38.964 172.054332,39.0813322 172.267,39.316 C172.479668,39.5506678 172.586,39.8513315 172.586,40.218 C172.586,40.5700018 172.380669,40.8999985 171.97,41.208 C171.559331,41.5160015 171.01667,41.7616658 170.342,41.945 C169.66733,42.1283343 168.94867,42.22 168.186,42.22 C167.056661,42.22 166.063004,41.9560026 165.205,41.428 C164.346996,40.8999974 163.683336,40.170338 163.214,39.239 C162.744664,38.307662 162.51,37.2700057 162.51,36.126 C162.51,34.9379941 162.755664,33.8820046 163.247,32.958 C163.738336,32.0339954 164.423996,31.3116693 165.304,30.791 C166.184004,30.2703307 167.181328,30.01 168.296,30.01 Z M184.78,35.84 C184.765333,36.1920018 184.626001,36.4779989 184.362,36.698 C184.097999,36.9180011 183.790002,37.028 183.438,37.028 L176.178,37.028 C176.354001,37.8933377 176.75733,38.5716642 177.388,39.063 C178.01867,39.5543358 178.729996,39.8 179.522,39.8 C180.123336,39.8 180.592665,39.7450006 180.93,39.635 C181.267335,39.5249995 181.534999,39.4076673 181.733,39.283 C181.931001,39.1583327 182.066666,39.0740002 182.14,39.03 C182.404001,38.8979993 182.653332,38.832 182.888,38.832 C183.196002,38.832 183.459999,38.9419989 183.68,39.162 C183.900001,39.3820011 184.01,39.6386652 184.01,39.932 C184.01,40.328002 183.804669,40.6873317 183.394,41.01 C182.983331,41.347335 182.433337,41.6333322 181.744,41.868 C181.054663,42.1026678 180.358004,42.22 179.654,42.22 C178.421994,42.22 177.347671,41.9633359 176.431,41.45 C175.514329,40.9366641 174.806669,40.2290045 174.308,39.327 C173.809331,38.4249955 173.56,37.409339 173.56,36.28 C173.56,35.0186604 173.823997,33.9113381 174.352,32.958 C174.880003,32.0046619 175.576662,31.2750025 176.442,30.769 C177.307338,30.2629975 178.231328,30.01 179.214,30.01 C180.182005,30.01 181.094996,30.2739974 181.953,30.802 C182.811004,31.3300026 183.496664,32.0413289 184.01,32.936 C184.523336,33.8306711 184.78,34.7986615 184.78,35.84 Z M179.214,32.43 C177.512658,32.43 176.508002,33.2293253 176.2,34.828 L181.964,34.828 L181.964,34.674 C181.905333,34.0579969 181.604669,33.5300022 181.062,33.09 C180.519331,32.6499978 179.903337,32.43 179.214,32.43 Z" id="Cloak" fill="#FFFFFF"></path>
                    </g>
                </g>
            </g>
        </g>
    </g>
</svg>